<mxfile host="Electron" modified="2024-05-16T07:31:52.744Z" agent="Mozilla/5.0 (Macintosh; Intel Mac OS X 10_15_7) AppleWebKit/537.36 (KHTML, like Gecko) draw.io/22.1.18 Chrome/120.0.6099.199 Electron/28.1.2 Safari/537.36" etag="f8ukBdHJIzVJ7476AAml" version="22.1.18" type="device">
  <diagram id="-Q11ldrP1Bci3HnGlJ7T" name="第 1 页">
    <mxGraphModel dx="852" dy="558" grid="1" gridSize="10" guides="1" tooltips="1" connect="1" arrows="1" fold="1" page="1" pageScale="1" pageWidth="827" pageHeight="1169" math="0" shadow="0">
      <root>
        <mxCell id="0" />
        <mxCell id="1" parent="0" />
        <mxCell id="yiYlynJE_OyoIodDRVfb-42" value="" style="group" parent="1" vertex="1" connectable="0">
          <mxGeometry x="70" y="800" width="649.5" height="125" as="geometry" />
        </mxCell>
        <mxCell id="yiYlynJE_OyoIodDRVfb-43" value="" style="group;fillColor=default;" parent="yiYlynJE_OyoIodDRVfb-42" vertex="1" connectable="0">
          <mxGeometry width="130" height="120" as="geometry" />
        </mxCell>
        <mxCell id="yiYlynJE_OyoIodDRVfb-44" value="" style="rounded=1;whiteSpace=wrap;html=1;" parent="yiYlynJE_OyoIodDRVfb-43" vertex="1">
          <mxGeometry width="130" height="120" as="geometry" />
        </mxCell>
        <mxCell id="yiYlynJE_OyoIodDRVfb-45" value="&lt;font style=&quot;font-size: 18px;&quot;&gt;Private&lt;/font&gt;&lt;div style=&quot;font-size: 18px;&quot;&gt;&lt;font style=&quot;font-size: 18px;&quot;&gt;Memory&lt;/font&gt;&lt;/div&gt;" style="rounded=0;whiteSpace=wrap;html=1;fillColor=#CCE5FF;" parent="yiYlynJE_OyoIodDRVfb-43" vertex="1">
          <mxGeometry x="15" y="50" width="100" height="60" as="geometry" />
        </mxCell>
        <mxCell id="yiYlynJE_OyoIodDRVfb-46" value="&lt;font style=&quot;font-size: 18px;&quot;&gt;Process 0&lt;/font&gt;" style="text;html=1;align=center;verticalAlign=middle;whiteSpace=wrap;rounded=0;" parent="yiYlynJE_OyoIodDRVfb-43" vertex="1">
          <mxGeometry x="17.5" y="10" width="95" height="30" as="geometry" />
        </mxCell>
        <mxCell id="yiYlynJE_OyoIodDRVfb-47" value="" style="group;fillColor=default;" parent="yiYlynJE_OyoIodDRVfb-42" vertex="1" connectable="0">
          <mxGeometry x="170" width="130" height="120" as="geometry" />
        </mxCell>
        <mxCell id="yiYlynJE_OyoIodDRVfb-48" value="" style="rounded=1;whiteSpace=wrap;html=1;" parent="yiYlynJE_OyoIodDRVfb-47" vertex="1">
          <mxGeometry width="130" height="120" as="geometry" />
        </mxCell>
        <mxCell id="yiYlynJE_OyoIodDRVfb-49" value="&lt;font style=&quot;font-size: 18px;&quot;&gt;Private&lt;/font&gt;&lt;div style=&quot;font-size: 18px;&quot;&gt;&lt;font style=&quot;font-size: 18px;&quot;&gt;Memory&lt;/font&gt;&lt;/div&gt;" style="rounded=0;whiteSpace=wrap;html=1;fillColor=#CCE5FF;" parent="yiYlynJE_OyoIodDRVfb-47" vertex="1">
          <mxGeometry x="15" y="50" width="100" height="60" as="geometry" />
        </mxCell>
        <mxCell id="yiYlynJE_OyoIodDRVfb-50" value="&lt;font style=&quot;font-size: 18px;&quot;&gt;Process 1&lt;/font&gt;" style="text;html=1;align=center;verticalAlign=middle;whiteSpace=wrap;rounded=0;" parent="yiYlynJE_OyoIodDRVfb-47" vertex="1">
          <mxGeometry x="17.5" y="10" width="95" height="30" as="geometry" />
        </mxCell>
        <mxCell id="yiYlynJE_OyoIodDRVfb-51" value="" style="group;" parent="yiYlynJE_OyoIodDRVfb-42" vertex="1" connectable="0">
          <mxGeometry x="341" width="130" height="120" as="geometry" />
        </mxCell>
        <mxCell id="yiYlynJE_OyoIodDRVfb-52" value="" style="rounded=1;whiteSpace=wrap;html=1;" parent="yiYlynJE_OyoIodDRVfb-51" vertex="1">
          <mxGeometry width="130" height="120" as="geometry" />
        </mxCell>
        <mxCell id="yiYlynJE_OyoIodDRVfb-53" value="&lt;font style=&quot;font-size: 18px;&quot;&gt;Private&lt;/font&gt;&lt;div style=&quot;font-size: 18px;&quot;&gt;&lt;font style=&quot;font-size: 18px;&quot;&gt;Memory&lt;/font&gt;&lt;/div&gt;" style="rounded=0;whiteSpace=wrap;html=1;fillColor=#CCE5FF;" parent="yiYlynJE_OyoIodDRVfb-51" vertex="1">
          <mxGeometry x="15" y="50" width="100" height="60" as="geometry" />
        </mxCell>
        <mxCell id="yiYlynJE_OyoIodDRVfb-54" value="&lt;font style=&quot;font-size: 18px;&quot;&gt;Process 2&lt;/font&gt;" style="text;html=1;align=center;verticalAlign=middle;whiteSpace=wrap;rounded=0;" parent="yiYlynJE_OyoIodDRVfb-51" vertex="1">
          <mxGeometry x="17.5" y="10" width="95" height="30" as="geometry" />
        </mxCell>
        <mxCell id="yiYlynJE_OyoIodDRVfb-55" value="" style="group;" parent="yiYlynJE_OyoIodDRVfb-42" vertex="1" connectable="0">
          <mxGeometry x="509" width="130" height="120" as="geometry" />
        </mxCell>
        <mxCell id="yiYlynJE_OyoIodDRVfb-56" value="" style="rounded=1;whiteSpace=wrap;html=1;" parent="yiYlynJE_OyoIodDRVfb-55" vertex="1">
          <mxGeometry width="130" height="120" as="geometry" />
        </mxCell>
        <mxCell id="yiYlynJE_OyoIodDRVfb-57" value="&lt;font style=&quot;font-size: 18px;&quot;&gt;Private&lt;/font&gt;&lt;div style=&quot;font-size: 18px;&quot;&gt;&lt;font style=&quot;font-size: 18px;&quot;&gt;Memory&lt;/font&gt;&lt;/div&gt;" style="rounded=0;whiteSpace=wrap;html=1;fillColor=#CCE5FF;" parent="yiYlynJE_OyoIodDRVfb-55" vertex="1">
          <mxGeometry x="15" y="50" width="100" height="60" as="geometry" />
        </mxCell>
        <mxCell id="yiYlynJE_OyoIodDRVfb-58" value="&lt;font style=&quot;font-size: 18px;&quot;&gt;Process 3&lt;/font&gt;" style="text;html=1;align=center;verticalAlign=middle;whiteSpace=wrap;rounded=0;" parent="yiYlynJE_OyoIodDRVfb-55" vertex="1">
          <mxGeometry x="17.5" y="10" width="95" height="30" as="geometry" />
        </mxCell>
        <mxCell id="yiYlynJE_OyoIodDRVfb-41" value="" style="group;fillColor=#e1d5e7;opacity=30;strokeColor=#9673A6;" parent="yiYlynJE_OyoIodDRVfb-42" vertex="1" connectable="0">
          <mxGeometry x="-10.5" y="43.5" width="660" height="40" as="geometry" />
        </mxCell>
        <mxCell id="yiYlynJE_OyoIodDRVfb-36" value="" style="rounded=1;whiteSpace=wrap;html=1;fillColor=#e1d5e7;strokeColor=#9673a6;opacity=80;" parent="yiYlynJE_OyoIodDRVfb-41" vertex="1">
          <mxGeometry width="660" height="40" as="geometry" />
        </mxCell>
        <mxCell id="yiYlynJE_OyoIodDRVfb-37" value="&lt;font style=&quot;font-size: 18px;&quot;&gt;window&lt;/font&gt;" style="rounded=0;whiteSpace=wrap;html=1;fillColor=#FFFFCC;opacity=80;" parent="yiYlynJE_OyoIodDRVfb-41" vertex="1">
          <mxGeometry x="18" y="6" width="112.5" height="24" as="geometry" />
        </mxCell>
        <mxCell id="yiYlynJE_OyoIodDRVfb-38" value="&lt;font style=&quot;font-size: 18px;&quot;&gt;window&lt;/font&gt;" style="rounded=0;whiteSpace=wrap;html=1;fillColor=#FFFFCC;opacity=80;" parent="yiYlynJE_OyoIodDRVfb-41" vertex="1">
          <mxGeometry x="530.5" y="7" width="112.5" height="24" as="geometry" />
        </mxCell>
        <mxCell id="yiYlynJE_OyoIodDRVfb-39" value="&lt;font style=&quot;font-size: 18px;&quot;&gt;window&lt;/font&gt;" style="rounded=0;whiteSpace=wrap;html=1;fillColor=#FFFFCC;opacity=80;" parent="yiYlynJE_OyoIodDRVfb-41" vertex="1">
          <mxGeometry x="190.5" y="7" width="112.5" height="24" as="geometry" />
        </mxCell>
        <mxCell id="yiYlynJE_OyoIodDRVfb-40" value="&lt;font style=&quot;font-size: 18px;&quot;&gt;window&lt;/font&gt;" style="rounded=0;whiteSpace=wrap;html=1;fillColor=#FFFFCC;opacity=80;" parent="yiYlynJE_OyoIodDRVfb-41" vertex="1">
          <mxGeometry x="360.5" y="7" width="112.5" height="24" as="geometry" />
        </mxCell>
        <mxCell id="yiYlynJE_OyoIodDRVfb-18" value="" style="group" parent="1" vertex="1" connectable="0">
          <mxGeometry x="70" y="613" width="639" height="125" as="geometry" />
        </mxCell>
        <mxCell id="yiYlynJE_OyoIodDRVfb-5" value="" style="group;" parent="yiYlynJE_OyoIodDRVfb-18" vertex="1" connectable="0">
          <mxGeometry y="9" width="130" height="120" as="geometry" />
        </mxCell>
        <mxCell id="yiYlynJE_OyoIodDRVfb-1" value="" style="rounded=1;whiteSpace=wrap;html=1;" parent="yiYlynJE_OyoIodDRVfb-5" vertex="1">
          <mxGeometry y="-8" width="130" height="120" as="geometry" />
        </mxCell>
        <mxCell id="yiYlynJE_OyoIodDRVfb-3" value="&lt;font style=&quot;font-size: 18px;&quot;&gt;Private&lt;/font&gt;&lt;div style=&quot;font-size: 18px;&quot;&gt;&lt;font style=&quot;font-size: 18px;&quot;&gt;Memory&lt;/font&gt;&lt;/div&gt;" style="rounded=0;whiteSpace=wrap;html=1;fillColor=#CCE5FF;" parent="yiYlynJE_OyoIodDRVfb-5" vertex="1">
          <mxGeometry x="15" y="42" width="100" height="60" as="geometry" />
        </mxCell>
        <mxCell id="yiYlynJE_OyoIodDRVfb-4" value="&lt;font style=&quot;font-size: 18px;&quot;&gt;Proces 0&lt;/font&gt;" style="text;html=1;align=center;verticalAlign=middle;whiteSpace=wrap;rounded=0;" parent="yiYlynJE_OyoIodDRVfb-5" vertex="1">
          <mxGeometry x="17.5" y="2" width="95" height="30" as="geometry" />
        </mxCell>
        <mxCell id="yiYlynJE_OyoIodDRVfb-6" value="" style="group;fillColor=default;" parent="yiYlynJE_OyoIodDRVfb-18" vertex="1" connectable="0">
          <mxGeometry x="170" width="130" height="120" as="geometry" />
        </mxCell>
        <mxCell id="yiYlynJE_OyoIodDRVfb-7" value="" style="rounded=1;whiteSpace=wrap;html=1;" parent="yiYlynJE_OyoIodDRVfb-6" vertex="1">
          <mxGeometry width="130" height="120" as="geometry" />
        </mxCell>
        <mxCell id="yiYlynJE_OyoIodDRVfb-8" value="&lt;font style=&quot;font-size: 18px;&quot;&gt;Private&lt;/font&gt;&lt;div style=&quot;font-size: 18px;&quot;&gt;&lt;font style=&quot;font-size: 18px;&quot;&gt;Memory&lt;/font&gt;&lt;/div&gt;" style="rounded=0;whiteSpace=wrap;html=1;fillColor=#CCE5FF;" parent="yiYlynJE_OyoIodDRVfb-6" vertex="1">
          <mxGeometry x="15" y="50" width="100" height="60" as="geometry" />
        </mxCell>
        <mxCell id="yiYlynJE_OyoIodDRVfb-9" value="&lt;font style=&quot;font-size: 18px;&quot;&gt;Process 1&lt;/font&gt;" style="text;html=1;align=center;verticalAlign=middle;whiteSpace=wrap;rounded=0;" parent="yiYlynJE_OyoIodDRVfb-6" vertex="1">
          <mxGeometry x="17.5" y="10" width="95" height="30" as="geometry" />
        </mxCell>
        <mxCell id="yiYlynJE_OyoIodDRVfb-10" value="" style="group;" parent="yiYlynJE_OyoIodDRVfb-18" vertex="1" connectable="0">
          <mxGeometry x="341" width="130" height="120" as="geometry" />
        </mxCell>
        <mxCell id="yiYlynJE_OyoIodDRVfb-11" value="" style="rounded=1;whiteSpace=wrap;html=1;" parent="yiYlynJE_OyoIodDRVfb-10" vertex="1">
          <mxGeometry width="130" height="120" as="geometry" />
        </mxCell>
        <mxCell id="yiYlynJE_OyoIodDRVfb-12" value="&lt;font style=&quot;font-size: 18px;&quot;&gt;Private&lt;/font&gt;&lt;div style=&quot;font-size: 18px;&quot;&gt;&lt;font style=&quot;font-size: 18px;&quot;&gt;Memory&lt;/font&gt;&lt;/div&gt;" style="rounded=0;whiteSpace=wrap;html=1;fillColor=#CCE5FF;" parent="yiYlynJE_OyoIodDRVfb-10" vertex="1">
          <mxGeometry x="15" y="50" width="100" height="60" as="geometry" />
        </mxCell>
        <mxCell id="yiYlynJE_OyoIodDRVfb-13" value="&lt;font style=&quot;font-size: 18px;&quot;&gt;Process 2&lt;/font&gt;" style="text;html=1;align=center;verticalAlign=middle;whiteSpace=wrap;rounded=0;" parent="yiYlynJE_OyoIodDRVfb-10" vertex="1">
          <mxGeometry x="17.5" y="10" width="95" height="30" as="geometry" />
        </mxCell>
        <mxCell id="yiYlynJE_OyoIodDRVfb-14" value="" style="group;" parent="yiYlynJE_OyoIodDRVfb-18" vertex="1" connectable="0">
          <mxGeometry x="509" width="130" height="120" as="geometry" />
        </mxCell>
        <mxCell id="yiYlynJE_OyoIodDRVfb-15" value="" style="rounded=1;whiteSpace=wrap;html=1;" parent="yiYlynJE_OyoIodDRVfb-14" vertex="1">
          <mxGeometry width="130" height="120" as="geometry" />
        </mxCell>
        <mxCell id="yiYlynJE_OyoIodDRVfb-16" value="&lt;font style=&quot;font-size: 18px;&quot;&gt;Private&lt;/font&gt;&lt;div style=&quot;font-size: 18px;&quot;&gt;&lt;font style=&quot;font-size: 18px;&quot;&gt;Memory&lt;/font&gt;&lt;/div&gt;" style="rounded=0;whiteSpace=wrap;html=1;fillColor=#CCE5FF;" parent="yiYlynJE_OyoIodDRVfb-14" vertex="1">
          <mxGeometry x="15" y="50" width="100" height="60" as="geometry" />
        </mxCell>
        <mxCell id="yiYlynJE_OyoIodDRVfb-17" value="&lt;font style=&quot;font-size: 18px;&quot;&gt;Process 3&lt;/font&gt;" style="text;html=1;align=center;verticalAlign=middle;whiteSpace=wrap;rounded=0;" parent="yiYlynJE_OyoIodDRVfb-14" vertex="1">
          <mxGeometry x="17.5" y="10" width="95" height="30" as="geometry" />
        </mxCell>
        <mxCell id="yiYlynJE_OyoIodDRVfb-59" value="&lt;font face=&quot;Times New Roman&quot; style=&quot;font-size: 30px;&quot;&gt;(a)&lt;/font&gt;" style="text;html=1;strokeColor=none;fillColor=none;align=center;verticalAlign=middle;whiteSpace=wrap;rounded=0;fontSize=30;" parent="1" vertex="1">
          <mxGeometry x="364.75" y="738" width="60" height="30" as="geometry" />
        </mxCell>
        <mxCell id="yiYlynJE_OyoIodDRVfb-60" value="&lt;font face=&quot;Times New Roman&quot; style=&quot;font-size: 30px;&quot;&gt;(b)&lt;/font&gt;" style="text;html=1;strokeColor=none;fillColor=none;align=center;verticalAlign=middle;whiteSpace=wrap;rounded=0;fontSize=30;" parent="1" vertex="1">
          <mxGeometry x="364.75" y="930" width="60" height="30" as="geometry" />
        </mxCell>
      </root>
    </mxGraphModel>
  </diagram>
</mxfile>
